<?xml version="1.0" encoding="UTF-8"?>
<svg width="42px" height="42px" viewBox="0 0 42 42" version="1.1" xmlns="http://www.w3.org/2000/svg" xmlns:xlink="http://www.w3.org/1999/xlink">
    <!-- Generator: Sketch 49.2 (51160) - http://www.bohemiancoding.com/sketch -->
    <title>email</title>
    <desc>Created with Sketch.</desc>
    <defs></defs>
    <g id="Page-1" stroke="none" stroke-width="1" fill="none" fill-rule="evenodd">
        <g id="Design" transform="translate(-496.000000, -4688.000000)" fill="#FFFFFF">
            <path d="M520.98125,4704.75645 C519.940424,4703.77957 518.540085,4703.18125 517,4703.18125 C513.786393,4703.18125 511.18125,4705.78639 511.18125,4709 C511.18125,4712.21361 513.786393,4714.81875 517,4714.81875 C518.79183,4714.81875 520.394494,4714.00883 521.461877,4712.73512 C522.135284,4713.97888 523.448333,4714.81875 524.9625,4714.81875 C527.145989,4714.81875 528.904611,4713.07309 528.943106,4710.89894 L528.94375,4710.89894 L528.94375,4709 C528.94375,4702.40365 523.596351,4697.05625 517,4697.05625 C510.403649,4697.05625 505.05625,4702.40365 505.05625,4709 C505.05625,4715.59635 510.403649,4720.94375 517,4720.94375 C518.588293,4720.94375 520.134855,4720.63309 521.571968,4720.03717 C522.098707,4719.64784 522.250211,4719.22438 522.02648,4718.76678 C521.80275,4718.30919 521.416635,4718.16686 520.868137,4718.33981 C519.653175,4718.84361 518.345687,4719.10625 517,4719.10625 C511.418472,4719.10625 506.89375,4714.58153 506.89375,4709 C506.89375,4703.41847 511.418472,4698.89375 517,4698.89375 C522.581528,4698.89375 527.10625,4703.41847 527.10625,4709 L527.10625,4710.82611 C527.10625,4712.02177 526.152864,4712.98125 524.9625,4712.98125 C523.773987,4712.98125 522.81875,4712.02539 522.81875,4710.82611 L522.81875,4704.1 L520.98125,4704.1 L520.98125,4704.75645 Z M496,4709 C496,4697.40202 505.40202,4688 517,4688 C528.59798,4688 538,4697.40202 538,4709 C538,4720.59798 528.59798,4730 517,4730 C505.40202,4730 496,4720.59798 496,4709 Z M517,4712.98125 C514.801216,4712.98125 513.01875,4711.19878 513.01875,4709 C513.01875,4706.80122 514.801216,4705.01875 517,4705.01875 C519.198784,4705.01875 520.98125,4706.80122 520.98125,4709 C520.98125,4711.19878 519.198784,4712.98125 517,4712.98125 Z" id="email"></path>
        </g>
    </g>
</svg>