<?xml version="1.0" encoding="UTF-8"?>
<svg width="42px" height="42px" viewBox="0 0 42 42" version="1.1" xmlns="http://www.w3.org/2000/svg" xmlns:xlink="http://www.w3.org/1999/xlink">
    <!-- Generator: Sketch 49.2 (51160) - http://www.bohemiancoding.com/sketch -->
    <title>Instagram</title>
    <desc>Created with Sketch.</desc>
    <defs></defs>
    <g id="Page-1" stroke="none" stroke-width="1" fill="none" fill-rule="evenodd">
        <g id="Design" transform="translate(-417.000000, -4688.000000)" fill="#FFFFFF">
            <path d="M417,4709 C417,4697.40202 426.40202,4688 438,4688 C449.59798,4688 459,4697.40202 459,4709 C459,4720.59798 449.59798,4730 438,4730 C426.40202,4730 417,4720.59798 417,4709 Z M438.00105,4697.8 C434.959285,4697.8 434.577548,4697.8133 433.382869,4697.86767 C432.190523,4697.92227 431.376648,4698.11104 430.664507,4698.38801 C429.927866,4698.67408 429.302993,4699.05675 428.680453,4699.67952 C428.057446,4700.30206 427.674776,4700.92693 427.387773,4701.66334 C427.110103,4702.37571 426.921101,4703.18982 426.867434,4704.3817 C426.814,4705.57638 426.8,4705.95835 426.8,4709.00012 C426.8,4712.04188 426.813533,4712.42245 426.867667,4713.61713 C426.922501,4714.80948 427.11127,4715.62335 427.388006,4716.33549 C427.674309,4717.07213 428.05698,4717.69701 428.679753,4718.31955 C429.302059,4718.94255 429.926933,4719.32616 430.663107,4719.61223 C431.375714,4719.8892 432.189823,4720.07797 433.381935,4720.13257 C434.576614,4720.18693 434.958118,4720.20023 437.99965,4720.20023 C441.041648,4720.20023 441.422219,4720.18693 442.616898,4720.13257 C443.809244,4720.07797 444.624052,4719.8892 445.33666,4719.61223 C446.073067,4719.32616 446.697007,4718.94255 447.319314,4718.31955 C447.94232,4717.69701 448.324991,4717.07213 448.611994,4716.33573 C448.88733,4715.62335 449.076332,4714.80924 449.132333,4713.61736 C449.186,4712.42269 449.2,4712.04188 449.2,4709.00012 C449.2,4705.95835 449.186,4705.57661 449.132333,4704.38194 C449.076332,4703.18959 448.88733,4702.37571 448.611994,4701.66357 C448.324991,4700.92693 447.94232,4700.30206 447.319314,4699.67952 C446.696307,4699.05651 446.073301,4698.67384 445.33596,4698.38801 C444.621952,4698.11104 443.80761,4697.92227 442.615265,4697.86767 C441.420586,4697.8133 441.040248,4697.8 437.99755,4697.8 L438.00105,4697.8 Z M436.996306,4699.81835 C437.294509,4699.81789 437.627246,4699.81835 438.00105,4699.81835 C440.991481,4699.81835 441.345918,4699.82909 442.52683,4699.88276 C443.618842,4699.93269 444.211515,4700.11516 444.606319,4700.26846 C445.128991,4700.47146 445.501628,4700.71413 445.893399,4701.10613 C446.285403,4701.49814 446.528072,4701.87148 446.731541,4702.39415 C446.884843,4702.78849 447.067544,4703.38116 447.117245,4704.47317 C447.170912,4705.65385 447.182579,4706.00852 447.182579,4708.99755 C447.182579,4711.98658 447.170912,4712.34125 447.117245,4713.52193 C447.067311,4714.61394 446.884843,4715.20661 446.731541,4715.60095 C446.528539,4716.12362 446.285403,4716.49579 445.893399,4716.88757 C445.501395,4717.27957 445.129224,4717.52224 444.606319,4717.72524 C444.211981,4717.87924 443.618842,4718.06124 442.52683,4718.11118 C441.346152,4718.16485 440.991481,4718.17651 438.00105,4718.17651 C435.010386,4718.17651 434.655948,4718.16485 433.47527,4718.11118 C432.383258,4718.06078 431.790585,4717.87831 431.395548,4717.72501 C430.872876,4717.52201 430.499539,4717.27934 430.107534,4716.88733 C429.71553,4716.49533 429.472861,4716.12292 429.269392,4715.60002 C429.116091,4715.20568 428.933389,4714.61301 428.883688,4713.521 C428.830021,4712.34032 428.819288,4711.98565 428.819288,4708.99475 C428.819288,4706.00385 428.830021,4705.65105 428.883688,4704.47037 C428.933622,4703.37836 429.116091,4702.78569 429.269392,4702.39088 C429.472395,4701.86821 429.71553,4701.49487 430.107534,4701.10287 C430.499539,4700.71086 430.872876,4700.46819 431.395548,4700.26473 C431.790352,4700.11072 432.383258,4699.92872 433.47527,4699.87855 C434.50848,4699.83189 434.908884,4699.81789 436.996306,4699.81555 L436.996306,4699.81835 Z M443.979579,4701.67804 C443.237571,4701.67804 442.635565,4702.27935 442.635565,4703.02159 C442.635565,4703.7636 443.237571,4704.3656 443.979579,4704.3656 C444.721587,4704.3656 445.323593,4703.7636 445.323593,4703.02159 C445.323593,4702.27958 444.721587,4701.67757 443.979579,4701.67757 L443.979579,4701.67804 Z M438.00105,4703.24839 C434.82465,4703.24839 432.249323,4705.82372 432.249323,4709.00012 C432.249323,4712.17652 434.82465,4714.75068 438.00105,4714.75068 C441.17745,4714.75068 443.751843,4712.17652 443.751843,4709.00012 C443.751843,4705.82372 441.177216,4703.24839 438.000817,4703.24839 L438.00105,4703.24839 Z M438.00105,4705.26674 C440.062805,4705.26674 441.734422,4706.93813 441.734422,4709.00012 C441.734422,4711.06187 440.062805,4712.73349 438.00105,4712.73349 C435.939062,4712.73349 434.267678,4711.06187 434.267678,4709.00012 C434.267678,4706.93813 435.939062,4705.26674 438.00105,4705.26674 Z" id="Instagram"></path>
        </g>
    </g>
</svg>