<?xml version="1.0" encoding="UTF-8"?>
<svg width="42px" height="42px" viewBox="0 0 42 42" version="1.1" xmlns="http://www.w3.org/2000/svg" xmlns:xlink="http://www.w3.org/1999/xlink">
    <!-- Generator: Sketch 49.2 (51160) - http://www.bohemiancoding.com/sketch -->
    <title>Telegram</title>
    <desc>Created with Sketch.</desc>
    <defs></defs>
    <g id="Page-1" stroke="none" stroke-width="1" fill="none" fill-rule="evenodd">
        <g id="Design" transform="translate(-333.000000, -4688.000000)" fill="#FFFFFF">
            <path d="M350.5073,4713.27197 L350.15,4718.625 C350.675,4718.625 350.906963,4718.3849 351.2,4718.1 L353.722372,4715.64731 L358.97,4719.52433 C359.935738,4720.05718 360.632745,4719.78129 360.8733,4718.62771 L364.318175,4702.39419 C364.67087,4700.98015 363.779158,4700.33881 362.85528,4700.75825 L342.62703,4708.55818 C341.246263,4709.112 341.254313,4709.88233 342.375345,4710.22558 L347.56637,4711.84578 L359.584145,4704.2639 C360.151478,4703.91987 360.672173,4704.10483 360.244805,4704.48412 L350.507,4713.27175 Z M354,4730 C342.40202,4730 333,4720.59798 333,4709 C333,4697.40202 342.40202,4688 354,4688 C365.59798,4688 375,4697.40202 375,4709 C375,4720.59798 365.59798,4730 354,4730 Z" id="Telegram"></path>
        </g>
    </g>
</svg>