<?xml version="1.0" encoding="UTF-8"?>
<svg width="42px" height="42px" viewBox="0 0 42 42" version="1.1" xmlns="http://www.w3.org/2000/svg" xmlns:xlink="http://www.w3.org/1999/xlink">
    <!-- Generator: Sketch 49.2 (51160) - http://www.bohemiancoding.com/sketch -->
    <title>wechat</title>
    <desc>Created with Sketch.</desc>
    <defs></defs>
    <g id="Page-1" stroke="none" stroke-width="1" fill="none" fill-rule="evenodd">
        <g id="Design" transform="translate(-249.000000, -4688.000000)" fill="#FFFFFF">
            <path d="M275.377413,4705.91207 C274.957955,4702.00271 271.151788,4698.94211 266.518421,4698.94211 C261.60454,4698.94211 257.621053,4702.38452 257.621053,4706.63095 C257.621053,4709.16763 259.04255,4711.41739 261.23472,4712.81782 C261.480323,4712.97472 260.419617,4715.18308 260.683652,4715.31787 C261.126833,4715.5441 262.910674,4713.67596 263.398877,4713.83393 C264.36962,4714.14804 265.42081,4714.31979 266.518421,4714.31979 C267.068406,4714.31979 267.606736,4714.27667 268.129129,4714.19412 C269.162712,4716.54816 271.861909,4718.22718 275.028947,4718.22718 C275.894556,4718.22718 276.725215,4718.10175 277.49647,4717.87139 C277.749705,4717.79576 279.463472,4719.30079 279.703033,4719.20326 C280.091714,4719.04501 278.994322,4717.26692 279.341031,4717.05603 C281.181847,4715.93637 282.378947,4714.11848 282.378947,4712.06622 C282.378947,4708.76153 279.274905,4706.06455 275.377413,4705.91207 Z M273.825761,4705.98741 C270.338835,4706.4687 267.678947,4709.00709 267.678947,4712.06622 C267.678947,4712.29374 267.69366,4712.51837 267.722331,4712.73949 C267.330602,4712.79364 266.928432,4712.82181 266.518421,4712.82181 C265.492349,4712.82181 264.515384,4712.64542 263.62826,4712.32681 C263.539769,4712.29503 263.224215,4712.19982 263.05351,4712.32681 C262.669772,4712.61229 262.155202,4713.20484 262.155202,4713.20484 C262.155202,4713.20484 262.343584,4712.77338 262.406728,4712.14331 C262.43558,4711.85542 261.996196,4711.65355 261.908507,4711.59424 C260.237449,4710.46395 259.168421,4708.59665 259.168421,4706.65564 C259.168421,4703.25016 262.459128,4700.48947 266.518421,4700.48947 C270.308582,4700.48947 273.428693,4702.89623 273.825761,4705.98741 Z M270,4730 C258.40202,4730 249,4720.59798 249,4709 C249,4697.40202 258.40202,4688 270,4688 C281.59798,4688 291,4697.40202 291,4709 C291,4720.59798 281.59798,4730 270,4730 Z M263.423684,4705.13158 C264.064625,4705.13158 264.584211,4704.61199 264.584211,4703.97105 C264.584211,4703.33011 264.064625,4702.81053 263.423684,4702.81053 C262.782743,4702.81053 262.263158,4703.33011 262.263158,4703.97105 C262.263158,4704.61199 262.782743,4705.13158 263.423684,4705.13158 Z M269.613158,4705.13158 C270.254099,4705.13158 270.773684,4704.61199 270.773684,4703.97105 C270.773684,4703.33011 270.254099,4702.81053 269.613158,4702.81053 C268.972217,4702.81053 268.452632,4703.33011 268.452632,4703.97105 C268.452632,4704.61199 268.972217,4705.13158 269.613158,4705.13158 Z M272.321053,4710.54737 C271.893759,4710.54737 271.547368,4710.20098 271.547368,4709.77368 C271.547368,4709.34639 271.893759,4709 272.321053,4709 C272.748347,4709 273.094737,4709.34639 273.094737,4709.77368 C273.094737,4710.20098 272.748347,4710.54737 272.321053,4710.54737 Z M276.963158,4710.54737 C276.535864,4710.54737 276.189474,4710.20098 276.189474,4709.77368 C276.189474,4709.34639 276.535864,4709 276.963158,4709 C277.390452,4709 277.736842,4709.34639 277.736842,4709.77368 C277.736842,4710.20098 277.390452,4710.54737 276.963158,4710.54737 Z" id="wechat"></path>
        </g>
    </g>
</svg>